<?xml version="1.0" standalone="no"?>
<!DOCTYPE svg PUBLIC "-//W3C//DTD SVG 20010904//EN"
 "http://www.w3.org/TR/2001/REC-SVG-20010904/DTD/svg10.dtd">
<svg version="1.0" xmlns="http://www.w3.org/2000/svg"
 width="500.000000pt" height="500.000000pt" viewBox="0 0 500.000000 500.000000"
 preserveAspectRatio="xMidYMid meet">

<g transform="translate(0.000000,500.000000) scale(0.100000,-0.100000)"
fill="#000000" stroke="none">
<path d="M2453 3878 c-37 -42 -806 -1082 -807 -1092 -2 -19 1168 -1277 1175
-1263 4 6 145 263 313 570 168 307 306 564 306 572 0 13 -843 1157 -893 1213
-12 12 -32 22 -47 22 -15 0 -36 -10 -47 -22z"/>
<path d="M1648 2490 c17 -30 209 -379 426 -775 374 -682 397 -720 424 -723 28
-3 33 3 126 173 54 97 95 182 93 188 -5 11 -1003 1096 -1069 1162 l-30 30 30
-55z"/>
</g>
</svg>
